<?xml version="1.0" standalone="no"?>
<!DOCTYPE svg PUBLIC "-//W3C//DTD SVG 20010904//EN"
 "http://www.w3.org/TR/2001/REC-SVG-20010904/DTD/svg10.dtd">
<svg version="1.0" xmlns="http://www.w3.org/2000/svg"
 width="700.000000pt" height="700.000000pt" viewBox="0 0 700.000000 700.000000"
 preserveAspectRatio="xMidYMid meet">
<metadata>
Created by potrace 1.14, written by Peter Selinger 2001-2017
</metadata>
<g transform="translate(0.000000,700.000000) scale(0.100000,-0.100000)"
fill="#000000" stroke="none">
<path d="M3549 6996 c-2 -2 -37 -7 -77 -10 -97 -8 -294 -50 -412 -88 -332
-106 -625 -282 -870 -523 -82 -80 -159 -165 -190 -209 -8 -12 -20 -27 -27 -34
-33 -34 -149 -221 -203 -328 l-60 -119 -163 -1 c-217 -1 -344 -22 -527 -86
-362 -128 -686 -415 -858 -763 -36 -72 -89 -207 -97 -245 -2 -8 -8 -33 -14
-56 -33 -124 -45 -229 -45 -389 2 -255 50 -454 164 -681 203 -402 588 -704
1020 -799 96 -21 118 -25 195 -32 95 -9 4353 -9 4435 0 169 18 298 55 455 133
358 176 614 510 701 914 23 105 26 401 6 495 -59 274 -181 503 -366 689 -180
181 -432 317 -661 357 -38 7 -75 17 -82 23 -6 6 -21 50 -32 98 -92 380 -324
782 -608 1048 -81 76 -92 86 -173 151 -68 55 -234 161 -330 211 -229 119 -423
180 -740 233 -41 7 -435 17 -441 11z m304 -440 c91 -5 261 -34 332 -56 17 -6
50 -16 75 -24 185 -58 414 -182 560 -303 74 -61 233 -224 282 -288 70 -93 135
-197 182 -293 45 -90 112 -260 119 -303 3 -13 10 -44 17 -69 14 -50 14 -53 30
-160 18 -127 43 -173 115 -215 39 -23 65 -28 210 -39 311 -24 610 -249 724
-545 30 -79 34 -91 52 -191 10 -58 13 -198 4 -240 -2 -13 -7 -42 -11 -65 -3
-22 -15 -67 -26 -100 -108 -321 -385 -550 -718 -594 -35 -4 -1041 -8 -2235 -7
l-2170 2 -91 21 c-336 79 -599 283 -749 582 -85 169 -115 308 -110 511 3 152
5 164 35 270 41 143 91 246 173 356 164 217 395 365 665 422 116 25 326 24
446 -3 91 -20 141 -15 194 19 59 37 79 65 112 156 113 309 313 587 565 785
124 97 301 202 411 243 16 6 54 20 84 31 135 52 309 87 467 97 60 4 110 8 112
10 2 2 13 2 25 -1 12 -2 65 -6 119 -9z"/>
<path d="M1888 2171 c-179 -82 -183 -321 -7 -401 44 -19 66 -20 2049 -20 1271
0 2018 4 2040 10 115 32 181 168 139 284 -23 62 -51 93 -113 122 l-49 23
-2011 0 c-1871 -1 -2014 -2 -2048 -18z"/>
<path d="M622 1308 c-59 -10 -96 -32 -138 -83 -32 -40 -37 -53 -42 -113 -3
-55 -1 -75 16 -108 27 -52 54 -79 105 -106 l42 -22 2009 -1 c2209 0 2060 -5
2128 60 92 87 90 239 -5 322 -19 17 -52 36 -72 43 -28 9 -499 12 -2020 14
-1091 0 -2001 -2 -2023 -6z"/>
<path d="M1452 421 c-175 -69 -185 -307 -18 -399 29 -16 180 -17 2066 -17
1886 0 2037 1 2066 17 101 55 145 175 104 284 -14 36 -70 94 -109 111 -33 15
-206 17 -2052 18 -1819 1 -2021 0 -2057 -14z"/>
</g>
</svg>
